<?xml version="1.0" encoding="UTF-8" standalone="no"?>
<!-- Created with Inkscape (http://www.inkscape.org/) -->

<svg
   xmlns="http://www.w3.org/2000/svg"
   width="133"
   height="61"
   viewBox="0 0 35.189583 16.139584"
   version="1.1"
   id="svg8">
  <defs
     id="defs2" />
  <metadata
     id="metadata5">
  </metadata>
  <g
     id="layer1"
     transform="translate(0,-280.86039)">
    <path
       style="fill:none;fill-rule:evenodd;stroke:#ffffff;stroke-width:0.36618727px;stroke-linecap:butt;stroke-linejoin:miter;stroke-opacity:1"
       d="m 4.6142585,284.78697 29.1246845,0.002 c 0.958828,-0.0266 1.303074,0.0766 1.259615,1.12784 l -0.0043,7.61518 c 0.07407,1.16636 -1.027272,1.02295 -1.027272,1.02295 l -9.227743,0.0686 -4.657371,2.19984 -5.4012,-2.18862 -10.1346885,-0.0394 c -0.988404,3.5e-4 -1.043898,-0.47469 -1.027939,-1.09007 l 0.01039,-7.4781 c -0.0349,-0.81424 0.05548,-1.24816 1.085827,-1.24047 z"
       id="path4585" />
    <g
       id="g4608"
       transform="matrix(0.1398081,0,0,0.13624294,6.1450195,287.82079)"
       style="fill:none;fill-rule:evenodd">
      <path
         id="path4598"
         d="M 0.76,25.276 H 90.932 V 0.76 H 0.759 v 24.517 z"
         style="stroke:#00e0a9;stroke-width:1.51900005" />
      <g
         id="g4602"
         style="fill:#00e0a9">
        <path
           id="path4600"
           d="m 112.403,19.384 -6.138,-7.137 v 7.137 h -3.598 V 6.408 h 2.159 l 6.137,7.137 V 6.408 h 3.599 v 12.976 z m 7.569,-5.882 h 3.335 c 0,-0.17 -0.08,-0.38 -0.24,-0.55 -0.26,-0.342 -0.758,-0.607 -1.418,-0.607 -1.018,0 -1.657,0.645 -1.677,1.157 m 6.01,-1.423 c 0.48,0.968 0.5,2.353 0.14,3.282 h -6.27 c 0,0.854 0.879,1.31 1.818,1.31 0.878,0 1.897,-0.152 2.775,-0.494 l 1.617,1.689 c -1.058,0.74 -2.595,1.498 -4.392,1.498 -2.996,0 -5.032,-2.143 -5.032,-4.857 0,-2.693 1.857,-4.875 5.011,-4.875 2.097,0 3.555,0.892 4.334,2.447 m 6.701,7.305 h -3.043 v -6.78 h -1.182 V 9.672 h 1.182 V 6.408 h 3.043 v 3.263 h 1.182 v 2.934 h -1.182 z m 14.21,-0.02 -2.252,-4.924 -2.251,4.924 h -1.964 l -4.445,-9.732 h 3.175 l 2.252,5.333 2.252,-5.333 h 1.963 l 2.252,5.333 2.232,-5.333 h 3.175 l -4.445,9.732 z m 10.316,-4.856 c 0,1.29 0.968,1.992 1.898,1.992 0.93,0 1.897,-0.702 1.897,-1.992 0,-1.29 -0.968,-2.011 -1.897,-2.011 -0.93,0 -1.897,0.72 -1.897,2.01 m 6.773,0 a 4.858,4.858 0 0 1 -4.876,4.857 4.842,4.842 0 0 1 -4.857,-4.856 4.858,4.858 0 0 1 4.857,-4.876 4.874,4.874 0 0 1 4.876,4.876 m 7.335,-1.978 c -1.34,0 -2.17,0.864 -2.17,2.38 v 4.454 h -3.076 V 9.766 h 2.031 l 0.355,1.805 c 0.69,-1.094 1.854,-1.939 3.59,-1.939 h 0.512 v 2.899 h -1.242 z m 8.034,4.13 c -0.426,-0.663 -0.735,-0.904 -1.412,-0.904 h -0.252 v 3.635 H 174.67 V 5.333 h 3.019 v 7.39 h 0.232 c 0.677,0 0.987,-0.22 1.412,-0.883 l 1.548,-2.49 h 3.347 l -2.34,3.695 c -0.31,0.482 -0.871,1.064 -1.2,1.205 0.348,0.12 0.909,0.703 1.218,1.185 l 2.496,3.956 h -3.347 z"/>
      </g>
      <g
         id="g4606"
         style="fill:#00e0a9">
        <path
           id="path4604"
           d="m 14.616,19.606 v -5.492 h -4.438 v 5.492 H 6.702 V 5.368 h 3.476 v 5.472 h 4.438 V 5.368 h 3.476 V 19.606 Z M 34.07,13.321 c 1.49,0 2.899,-0.691 2.899,-2.339 0,-1.566 -1.409,-2.36 -2.9,-2.36 h -1.636 v 4.7 h 1.636 z M 33.8,5.368 c 4.245,0 6.503,2.584 6.503,5.614 0,3.051 -2.258,5.614 -6.503,5.614 h -1.367 v 3.01 h -3.52 V 5.368 Z m 26.862,14.238 v -7.973 l -3.854,4.576 -3.833,-4.576 v 7.973 h -3.56 V 5.368 h 2.136 l 5.257,6.346 5.278,-6.346 h 2.136 v 14.238 z m 18.471,-3.274 c 2.153,0 3.814,-1.323 3.814,-3.845 0,-2.501 -1.661,-3.864 -3.814,-3.864 H 77.39 v 7.709 z m 0,-10.964 c 4.04,0 7.3,3.03 7.3,7.12 0,4.108 -3.26,7.118 -7.3,7.118 h -5.23 V 5.368 Z"/>
      </g>
    </g>
    <path
       id="path5177"
       d="m 3.0747369,282.7287 c -0.010479,-0.016 -0.03736,-0.016 -0.046018,0 l -0.2726131,0.43265 a 0.02855224,0.02630649 0 0 0 0.025211,0.0392 h 0.1240804 v 0.0935 a 0.53672139,0.49450608 0 0 1 -0.5380882,0.49494 H 1.881314 v -1.85391 h 0.7985515 c 0.016402,0 0.028552,-0.0105 0.028552,-0.0258 v -0.12705 a 0.02840036,0.02616656 0 0 0 -0.028552,-0.0265 H 1.881314 v -0.17603 a 0.32121272,0.29594804 0 0 0 0.1710097,-0.25915 0.31832712,0.29328941 0 0 0 -0.318479,-0.29175 c -0.018225,0 -0.037361,0.007 -0.053763,0.0104 -0.00531,0 -0.010479,-0.004 -0.015643,-0.003 -0.010479,0.002 -0.020807,0.007 -0.028704,0.0104 -0.015643,0.003 -0.028552,0.01 -0.044195,0.0168 -0.023389,0.0104 -0.040854,0.0224 -0.06075,0.0377 -0.00866,0.008 -0.020807,0.0145 -0.029463,0.0231 -0.018225,0.0193 -0.032197,0.0409 -0.045258,0.0624 -0.00517,0.01 -0.01215,0.0176 -0.017313,0.0271 -0.01215,0.0329 -0.019895,0.0688 -0.019895,0.10635 0,0.0322 0.00517,0.0616 0.014732,0.0895 a 0.11026025,0.10158784 0 0 0 0.015643,0.0297 c 0.00683,0.0167 0.014732,0.0344 0.026882,0.048 0.00866,0.0104 0.017314,0.0191 0.025211,0.0286 0.013821,0.0137 0.027641,0.0249 0.042524,0.0353 0.01215,0.007 0.020807,0.0151 0.032045,0.0207 0.0035,0.002 0.00699,0.006 0.010479,0.007 v 0.1759 H 0.82351422 c -0.014732,0 -0.0268815,0.012 -0.0268815,0.0264 v 0.12706 c 0,0.0152 0.01215,0.0256 0.0268815,0.0256 H 1.5863754 v 1.85433 H 1.0862556 A 0.5355064,0.49338666 0 0 1 0.55074923,283.2932 v -0.0935 h 0.1233214 c 0.022477,0 0.035539,-0.0209 0.02597,-0.0392 l -0.2733725,-0.43265 a 0.02840036,0.02616656 0 0 0 -0.047689,0 l -0.2707908,0.43265 c -0.010327,0.0184 0.00182,0.0392 0.023389,0.0392 h 0.1207394 l 0.00516,0.0935 a 0.82998933,0.76470734 0 0 0 0.82877417,0.76461 h 0.4894887 l 0.1275738,0.20234 a 0.02779288,0.02560685 0 0 0 0.0486,0 l 0.1259088,-0.20158 h 0.4893383 a 0.82983751,0.76456744 0 0 0 0.8305967,-0.76442 v -0.0935 h 0.1240809 c 0.023388,0 0.035539,-0.0208 0.025212,-0.0392 l -0.2724618,-0.43267 z"
       style="fill:#3573ff;fill-rule:evenodd;stroke:#3573ff;stroke-width:0.19432284" />
  </g>
</svg>
