<?xml version="1.0" encoding="UTF-8" standalone="no"?>
<!-- Created with Inkscape (http://www.inkscape.org/) -->

<svg
   xmlns="http://www.w3.org/2000/svg"
   width="133"
   height="61"
   viewBox="0 0 35.189583 16.139584"
   version="1.1"
   id="svg8">
  <defs
     id="defs2" />
  <metadata
     id="metadata5">
  </metadata>
  <g
     id="layer1"
     transform="translate(0,-280.86039)">
    <path
       style="fill:none;fill-rule:evenodd;stroke:#ffffff;stroke-width:0.36618727px;stroke-linecap:butt;stroke-linejoin:miter;stroke-opacity:1"
       d="m 4.5543953,284.37753 29.1246847,0.002 c 0.958828,-0.0266 1.303074,0.0766 1.259615,1.12784 l -0.0043,7.61518 c 0.07407,1.16636 -1.027272,1.02295 -1.027272,1.02295 l -9.227743,0.0686 -4.657371,2.19984 -5.4012,-2.18862 -10.1346887,-0.0394 c -0.988404,3.5e-4 -1.043898,-0.47469 -1.027939,-1.09007 l 0.01039,-7.4781 c -0.0349,-0.81424 0.05548,-1.24816 1.085827,-1.24047 z"
       id="path4585" />
    <g
       id="g4608"
       transform="matrix(0.1398081,0,0,0.13624294,6.0851563,287.41135)"
       style="fill:none;fill-rule:evenodd">
      <path
         id="path4598"
         d="M 0.76,25.276 H 90.932 V 0.76 H 0.759 v 24.517 z"
         style="stroke:#00e0a9;stroke-width:1.51900005" />
      <g
         id="g4602"
         style="fill:#00e0a9">
        <path
           id="path4600"
           d="m 112.403,19.384 -6.138,-7.137 v 7.137 h -3.598 V 6.408 h 2.159 l 6.137,7.137 V 6.408 h 3.599 v 12.976 z m 7.569,-5.882 h 3.335 c 0,-0.17 -0.08,-0.38 -0.24,-0.55 -0.26,-0.342 -0.758,-0.607 -1.418,-0.607 -1.018,0 -1.657,0.645 -1.677,1.157 m 6.01,-1.423 c 0.48,0.968 0.5,2.353 0.14,3.282 h -6.27 c 0,0.854 0.879,1.31 1.818,1.31 0.878,0 1.897,-0.152 2.775,-0.494 l 1.617,1.689 c -1.058,0.74 -2.595,1.498 -4.392,1.498 -2.996,0 -5.032,-2.143 -5.032,-4.857 0,-2.693 1.857,-4.875 5.011,-4.875 2.097,0 3.555,0.892 4.334,2.447 m 6.701,7.305 h -3.043 v -6.78 h -1.182 V 9.672 h 1.182 V 6.408 h 3.043 v 3.263 h 1.182 v 2.934 h -1.182 z m 14.21,-0.02 -2.252,-4.924 -2.251,4.924 h -1.964 l -4.445,-9.732 h 3.175 l 2.252,5.333 2.252,-5.333 h 1.963 l 2.252,5.333 2.232,-5.333 h 3.175 l -4.445,9.732 z m 10.316,-4.856 c 0,1.29 0.968,1.992 1.898,1.992 0.93,0 1.897,-0.702 1.897,-1.992 0,-1.29 -0.968,-2.011 -1.897,-2.011 -0.93,0 -1.897,0.72 -1.897,2.01 m 6.773,0 a 4.858,4.858 0 0 1 -4.876,4.857 4.842,4.842 0 0 1 -4.857,-4.856 4.858,4.858 0 0 1 4.857,-4.876 4.874,4.874 0 0 1 4.876,4.876 m 7.335,-1.978 c -1.34,0 -2.17,0.864 -2.17,2.38 v 4.454 h -3.076 V 9.766 h 2.031 l 0.355,1.805 c 0.69,-1.094 1.854,-1.939 3.59,-1.939 h 0.512 v 2.899 h -1.242 z m 8.034,4.13 c -0.426,-0.663 -0.735,-0.904 -1.412,-0.904 h -0.252 v 3.635 H 174.67 V 5.333 h 3.019 v 7.39 h 0.232 c 0.677,0 0.987,-0.22 1.412,-0.883 l 1.548,-2.49 h 3.347 l -2.34,3.695 c -0.31,0.482 -0.871,1.064 -1.2,1.205 0.348,0.12 0.909,0.703 1.218,1.185 l 2.496,3.956 h -3.347 z" />
      </g>
      <g
         id="g4606"
         style="fill:#00e0a9">
        <path
           id="path4604"
           d="m 14.616,19.606 v -5.492 h -4.438 v 5.492 H 6.702 V 5.368 h 3.476 v 5.472 h 4.438 V 5.368 h 3.476 V 19.606 Z M 34.07,13.321 c 1.49,0 2.899,-0.691 2.899,-2.339 0,-1.566 -1.409,-2.36 -2.9,-2.36 h -1.636 v 4.7 h 1.636 z M 33.8,5.368 c 4.245,0 6.503,2.584 6.503,5.614 0,3.051 -2.258,5.614 -6.503,5.614 h -1.367 v 3.01 h -3.52 V 5.368 Z m 26.862,14.238 v -7.973 l -3.854,4.576 -3.833,-4.576 v 7.973 h -3.56 V 5.368 h 2.136 l 5.257,6.346 5.278,-6.346 h 2.136 v 14.238 z m 18.471,-3.274 c 2.153,0 3.814,-1.323 3.814,-3.845 0,-2.501 -1.661,-3.864 -3.814,-3.864 H 77.39 v 7.709 z m 0,-10.964 c 4.04,0 7.3,3.03 7.3,7.12 0,4.108 -3.26,7.118 -7.3,7.118 h -5.23 V 5.368 Z" />
      </g>
    </g>
    <path
       id="path5188"
       d="m 1.7469441,283.59342 -1.0628925,0.73369 0.3351292,-1.28956 -0.99196064,-0.83622 1.26999174,-0.0633 0.4497322,-1.25048 0.4498679,1.25048 1.2699916,0.0633 -0.9920962,0.83622 0.3351292,1.28956 z"
       style="fill:#f1433c;fill-rule:evenodd;stroke-width:0.13907018" />
  </g>
</svg>
