<svg xmlns="http://www.w3.org/2000/svg" width="133" height="62">
	<svg xmlns="http://www.w3.org/2000/svg" width="13" height="13" viewBox="0 0 26 25">
		<path fill="#3573FF" fill-rule="evenodd" stroke="#3573FF" stroke-width="1.333" d="M20.733 12.892c-.069-.114-.246-.114-.303 0l-1.795 3.092a.188.188 0 0 0 .166.28h.817v.668a3.534 3.534 0 0 1-3.543 3.537h-3.2V7.22h5.258c.108 0 .188-.075.188-.184v-.908a.187.187 0 0 0-.188-.189h-5.258V4.681a2.115 2.115 0 0 0 1.126-1.852A2.096 2.096 0 0 0 11.904.744c-.12 0-.246.051-.354.074-.035 0-.069-.029-.103-.017-.069.011-.137.051-.189.074-.103.023-.188.069-.291.12-.154.074-.269.16-.4.269-.057.057-.137.103-.194.165-.12.138-.212.292-.298.446-.034.069-.08.126-.114.194-.08.235-.131.492-.131.76 0 .23.034.44.097.64a.726.726 0 0 0 .103.212c.045.12.097.246.177.343.057.074.114.137.166.205.091.098.182.178.28.252.08.051.137.108.211.148.023.012.046.04.069.052v1.257H5.91c-.097 0-.177.086-.177.189v.908c0 .109.08.183.177.183H10.933V20.47H7.64a3.526 3.526 0 0 1-3.526-3.537v-.668h.812c.148 0 .234-.149.171-.28l-1.8-3.092a.187.187 0 0 0-.314 0l-1.783 3.092c-.068.131.012.28.154.28h.795l.034.668a5.465 5.465 0 0 0 5.457 5.463h3.223l.84 1.446a.183.183 0 0 0 .32 0l.829-1.446h3.222a5.464 5.464 0 0 0 5.469-5.463v-.668h.817c.154 0 .234-.149.166-.28l-1.794-3.092z"/>
	</svg>
	<polygon points="13,13 133,13 133,53 93,53 73,61 53,53 13,53" fill="transparent" stroke="white"
	         stroke-width="1" />
	<svg xmlns="http://www.w3.org/2000/svg" width="93" height="13" x="25" y="27" viewBox="0 0 185 27">
		<g fill="none" fill-rule="evenodd">
			<path stroke="#00E0A9" stroke-width="1.519" d="M.76 25.276h90.172V.76H.759v24.517z"/>
			<g fill="#00E0A9">
				<path d="M112.403 19.384l-6.138-7.137v7.137h-3.598V6.408h2.159l6.137 7.137V6.408h3.599v12.976zM119.972 13.502h3.335c0-.17-.08-.38-.24-.55-.26-.342-.758-.607-1.418-.607-1.018 0-1.657.645-1.677 1.157m6.01-1.423c.48.968.5 2.353.14 3.282h-6.27c0 .854.879 1.31 1.818 1.31.878 0 1.897-.152 2.775-.494l1.617 1.689c-1.058.74-2.595 1.498-4.392 1.498-2.996 0-5.032-2.143-5.032-4.857 0-2.693 1.857-4.875 5.011-4.875 2.097 0 3.555.892 4.334 2.447M132.684 19.384h-3.043v-6.78h-1.182V9.672h1.182V6.408h3.043v3.263h1.182v2.934h-1.182zM146.894 19.364l-2.252-4.924-2.251 4.924h-1.964l-4.445-9.732h3.175l2.252 5.333 2.252-5.333h1.963l2.252 5.333 2.232-5.333h3.175l-4.445 9.732zM157.21 14.508c0 1.29.968 1.992 1.898 1.992.93 0 1.897-.702 1.897-1.992s-.968-2.011-1.897-2.011c-.93 0-1.897.72-1.897 2.01m6.773 0a4.858 4.858 0 0 1-4.876 4.857 4.842 4.842 0 0 1-4.857-4.856 4.858 4.858 0 0 1 4.857-4.876 4.874 4.874 0 0 1 4.876 4.876M171.319 12.53c-1.34 0-2.17.864-2.17 2.38v4.454h-3.076V9.766h2.031l.355 1.805c.69-1.094 1.854-1.939 3.59-1.939h.512v2.899h-1.242zM179.353 16.66c-.426-.663-.735-.904-1.412-.904h-.252v3.635h-3.019V5.333h3.019v7.39h.232c.677 0 .987-.22 1.412-.883l1.548-2.49h3.347l-2.34 3.695c-.31.482-.871 1.064-1.2 1.205.348.12.909.703 1.218 1.185l2.496 3.956h-3.347l-1.702-2.731z"/>
			</g>
			<g fill="#00E0A9">
				<path d="M14.616 19.606v-5.492h-4.438v5.492H6.702V5.368h3.476v5.472h4.438V5.368h3.476v14.238zM34.07 13.321c1.49 0 2.899-.691 2.899-2.339 0-1.566-1.409-2.36-2.9-2.36h-1.636v4.7h1.636zm-.27-7.953c4.245 0 6.503 2.584 6.503 5.614 0 3.051-2.258 5.614-6.503 5.614h-1.367v3.01h-3.52V5.368H33.8zM60.662 19.606v-7.973l-3.854 4.576-3.833-4.576v7.973h-3.56V5.368h2.136l5.257 6.346 5.278-6.346h2.136v14.238zM79.133 16.332c2.153 0 3.814-1.323 3.814-3.845 0-2.501-1.661-3.864-3.814-3.864H77.39v7.709h1.743zm0-10.964c4.04 0 7.3 3.03 7.3 7.12 0 4.108-3.26 7.118-7.3 7.118h-5.23V5.368h5.23z"/>
			</g>
		</g>
	</svg>
</svg>
